<?xml version="1.0" encoding="UTF-8" ?>
<!DOCTYPE svg PUBLIC "-//W3C//DTD SVG 1.1//EN" "http://www.w3.org/Graphics/SVG/1.1/DTD/svg11.dtd">
<svg width="1554pt" height="541pt" viewBox="0 0 1554 541" version="1.1" xmlns="http://www.w3.org/2000/svg">
<g id="#02b2feff">
<path fill="#02b2fe" opacity="1.00" d=" M 18.49 24.21 C 51.34 23.74 84.21 24.09 117.06 24.03 C 144.63 23.97 172.25 28.97 197.90 39.17 C 205.33 42.14 212.61 45.50 219.68 49.24 C 225.95 53.01 232.23 56.75 238.47 60.56 C 241.03 62.26 243.95 63.87 245.28 66.79 C 207.09 113.73 168.56 160.44 130.28 207.32 C 121.22 218.23 112.40 229.33 103.24 240.15 C 118.33 259.19 134.02 277.76 149.30 296.65 C 181.71 336.12 214.00 375.70 246.44 415.15 C 245.87 415.40 244.72 415.90 244.15 416.16 C 243.30 416.83 242.45 417.51 241.61 418.20 C 234.64 422.93 227.40 427.22 220.07 431.35 C 213.24 434.97 206.18 438.08 199.07 441.10 C 197.65 441.63 196.22 442.15 194.78 442.64 C 193.50 443.17 192.22 443.69 190.95 444.26 C 190.44 444.38 189.42 444.62 188.90 444.74 C 170.33 451.62 150.58 454.80 130.94 456.43 C 93.53 456.62 56.12 456.47 18.71 456.52 C 18.36 412.02 18.66 367.52 18.56 323.02 C 18.51 223.42 18.64 123.81 18.49 24.21 Z" />
<path fill="#02b2fe" opacity="1.00" d=" M 320.36 161.12 L 320.60 160.72 C 319.76 163.20 321.57 165.53 322.18 167.86 C 324.66 175.26 327.34 182.70 328.60 190.42 C 328.78 190.52 329.14 190.71 329.32 190.80 C 330.99 201.30 333.37 211.74 333.91 222.41 C 334.37 230.92 335.71 239.47 334.61 247.99 C 333.66 272.11 328.80 296.07 320.09 318.59 C 299.10 292.20 277.26 266.47 256.19 240.14 C 276.29 216.22 295.79 191.78 315.76 167.74 C 317.56 165.73 319.12 163.52 320.36 161.12 Z" />
<path fill="#02b2fe" opacity="1.00" d=" M 1174.68 171.73 C 1174.70 171.70 1174.74 171.64 1174.76 171.61 C 1174.74 171.64 1174.70 171.70 1174.68 171.73 Z" />
<path fill="#02b2fe" opacity="1.00" d=" M 1147.04 182.09 C 1150.73 182.34 1154.39 183.03 1158.11 183.07 C 1154.41 183.26 1150.58 183.25 1147.04 182.09 Z" />
</g>
<g id="#fe015bff">
<path fill="#fe015b" opacity="1.00" d=" M 279.77 25.53 C 280.76 23.61 283.21 24.21 284.97 23.99 C 332.62 24.00 380.27 24.00 427.92 23.99 C 429.51 24.02 431.11 24.15 432.71 24.30 C 422.13 36.56 412.12 49.32 401.79 61.79 C 374.67 94.72 347.83 127.88 320.60 160.72 L 320.36 161.12 C 305.46 123.69 280.21 90.39 247.79 66.42 C 247.77 66.16 247.72 65.62 247.70 65.36 C 247.73 64.87 247.80 63.88 247.83 63.39 L 248.80 63.87 C 258.72 50.78 269.67 38.48 279.77 25.53 Z" />
<path fill="#fe015b" opacity="1.00" d=" M 598.99 127.66 C 600.58 131.70 600.50 136.54 598.82 140.54 C 599.24 136.75 599.57 132.93 599.07 129.13 L 598.99 127.66 Z" />
<path fill="#fe015b" opacity="1.00" d=" M 822.35 149.42 C 822.37 149.47 822.41 149.56 822.43 149.61 C 822.41 149.56 822.37 149.47 822.35 149.42 Z" />
<path fill="#fe015b" opacity="1.00" d=" M 320.19 319.29 C 357.05 364.29 393.86 409.34 430.81 454.27 C 431.15 454.83 431.84 455.95 432.18 456.51 C 381.77 456.53 331.35 456.54 280.93 456.50 C 269.67 442.55 258.18 428.77 246.88 414.85 C 262.24 403.83 275.81 390.39 287.72 375.74 C 301.22 358.67 312.64 339.74 320.19 319.29 Z" />
</g>
<g id="#ff0000ff">
<path fill="#ff0000" opacity="1.00" d=" M 1253.65 31.40 C 1259.26 26.14 1267.71 26.13 1274.95 26.12 C 1280.62 26.60 1287.35 27.05 1291.20 31.84 C 1294.63 36.47 1294.85 42.50 1294.80 48.03 C 1294.84 89.71 1294.78 131.38 1294.83 173.06 C 1295.06 176.62 1294.88 180.53 1296.82 183.67 C 1300.63 187.32 1306.27 185.66 1310.99 186.30 C 1314.69 187.29 1317.94 190.15 1318.98 193.92 C 1321.31 203.04 1321.12 212.75 1318.60 221.79 C 1317.17 226.72 1311.78 228.79 1307.07 228.82 C 1299.02 229.04 1290.90 229.19 1282.94 227.81 C 1274.43 226.69 1265.32 224.23 1259.33 217.68 C 1254.94 211.96 1253.20 204.73 1251.98 197.76 C 1249.41 182.98 1250.23 167.94 1250.11 153.01 C 1250.11 117.34 1250.11 81.68 1250.11 46.01 C 1250.23 41.06 1250.82 35.84 1253.52 31.56 C 1253.55 31.52 1253.61 31.44 1253.65 31.40 Z" />
<path fill="#ff0000" opacity="1.00" d=" M 679.51 27.63 C 686.69 26.58 694.17 26.49 701.31 27.86 C 707.10 28.90 711.19 34.18 711.80 39.85 C 712.30 46.25 712.33 52.69 711.75 59.08 C 710.95 63.88 707.91 68.73 702.94 70.01 C 694.45 72.17 685.48 72.19 676.98 70.02 C 672.02 68.71 668.90 63.86 668.19 59.00 C 666.88 51.36 666.86 43.37 668.97 35.89 C 670.41 31.24 674.95 28.51 679.51 27.63 Z" />
<path fill="#ff0000" opacity="1.00" d=" M 908.47 27.54 C 916.39 26.74 924.83 26.05 932.48 28.73 C 937.56 30.25 939.56 35.73 940.45 40.45 C 940.98 45.91 940.89 51.44 940.58 56.91 C 940.06 62.48 937.16 68.76 931.21 70.11 C 925.26 71.31 919.07 72.33 913.02 71.27 C 908.98 70.72 904.45 70.58 901.29 67.63 C 897.17 64.05 896.44 58.22 896.15 53.09 C 896.07 46.81 895.70 40.21 898.28 34.33 C 900.00 30.24 904.43 28.46 908.47 27.54 Z" />
<path fill="#ff0000" opacity="1.00" d=" M 485.12 40.28 C 491.95 37.15 499.71 37.76 507.04 37.61 C 523.02 38.01 539.00 37.69 554.98 38.09 C 586.77 39.18 616.07 58.71 632.51 85.41 C 651.70 118.41 648.34 163.42 623.75 192.80 C 612.31 206.83 597.40 218.42 580.05 224.06 C 579.55 224.23 578.55 224.59 578.06 224.76 C 561.97 230.46 544.68 228.97 527.92 229.21 C 515.65 229.01 503.34 229.72 491.11 228.55 C 486.95 227.62 481.91 226.06 480.37 221.59 C 478.73 216.92 477.74 211.97 477.45 207.03 C 477.49 157.03 477.39 107.04 477.50 57.04 C 478.19 51.06 479.05 43.29 485.12 40.28 M 523.45 83.65 C 523.48 116.91 523.48 150.17 523.45 183.43 C 528.26 184.04 533.13 183.63 537.97 183.74 C 549.02 183.94 560.63 183.96 570.68 178.70 C 578.52 174.44 586.05 168.78 590.85 161.16 C 592.79 161.31 594.37 158.22 593.69 156.51 C 596.69 151.76 598.19 146.10 598.82 140.54 C 600.50 136.54 600.58 131.70 598.99 127.66 C 598.26 115.34 591.64 103.49 582.03 95.87 C 580.01 93.89 577.64 92.31 575.26 90.80 C 572.33 88.86 569.19 87.20 565.80 86.23 L 565.05 85.96 C 561.24 84.37 557.09 83.69 553.00 83.43 C 543.15 83.67 533.29 83.29 523.45 83.65 Z" />
<path fill="#ff0000" opacity="1.00" d=" M 994.66 45.67 C 1002.55 43.62 1010.98 43.45 1018.92 45.37 C 1022.92 46.51 1027.04 48.89 1028.50 53.02 C 1030.86 61.12 1029.55 69.63 1029.89 77.94 C 1030.19 83.04 1029.19 88.29 1030.51 93.29 C 1039.26 92.19 1048.15 91.82 1056.96 92.51 C 1061.04 93.36 1065.78 94.93 1067.66 99.04 C 1070.83 105.92 1069.84 113.67 1069.86 121.01 C 1069.28 126.12 1067.99 132.65 1062.53 134.67 C 1052.06 139.09 1040.75 135.31 1029.89 135.88 C 1029.89 148.90 1029.87 161.92 1029.89 174.94 C 1030.25 178.69 1030.91 183.44 1034.60 185.41 C 1041.61 188.63 1050.05 185.15 1056.75 189.32 C 1061.92 192.10 1062.87 198.72 1062.89 204.03 C 1062.76 208.65 1063.40 213.55 1061.73 217.97 C 1061.54 218.45 1061.15 219.43 1060.96 219.92 C 1060.42 223.38 1057.36 226.35 1054.00 227.16 C 1053.49 227.31 1052.49 227.62 1051.99 227.78 C 1048.96 229.47 1045.26 228.61 1041.95 228.87 C 1026.59 229.35 1010.03 226.31 998.29 215.71 C 988.90 206.32 986.14 192.48 985.46 179.69 C 985.16 165.06 985.52 150.43 985.27 135.80 C 979.35 135.67 972.72 138.09 967.37 134.56 C 960.11 129.12 961.06 118.99 961.20 110.96 C 961.97 105.17 961.85 97.88 967.40 94.36 C 972.78 90.89 979.33 92.65 985.26 93.02 C 985.59 81.68 985.05 70.33 985.54 58.99 C 985.80 53.41 988.84 47.15 994.66 45.67 Z" />
<path fill="#ff0000" opacity="1.00" d=" M 831.62 94.69 C 836.78 90.61 843.76 91.17 849.95 91.19 C 855.50 91.34 861.96 91.57 866.01 95.95 C 868.74 99.67 869.92 104.39 869.88 108.97 C 869.90 146.96 869.87 184.95 869.89 222.94 C 869.83 238.26 864.63 253.83 854.13 265.17 C 841.13 279.39 822.37 288.51 803.01 288.86 C 788.89 288.95 774.87 285.06 762.61 278.12 C 756.91 274.90 750.88 271.46 747.35 265.74 C 745.42 262.80 746.18 259.08 747.07 255.91 C 748.89 248.51 754.93 243.32 760.10 238.14 C 763.57 234.30 769.91 233.97 773.95 237.11 C 779.79 241.49 786.35 245.08 793.54 246.60 C 801.29 248.23 810.35 248.32 816.60 242.71 C 825.22 235.27 826.95 223.10 826.15 212.33 C 823.15 213.07 821.62 215.93 819.18 217.53 C 810.25 223.86 798.77 225.45 788.09 224.39 C 774.75 222.60 762.75 215.15 753.76 205.35 C 748.79 200.45 744.61 194.78 741.41 188.58 C 734.17 174.31 732.36 157.40 736.26 141.88 C 739.94 126.13 750.23 112.53 762.94 102.84 C 773.13 95.11 786.08 90.50 798.95 91.69 C 806.17 92.35 812.93 95.36 819.04 99.14 C 821.74 100.88 823.19 104.04 826.08 105.54 C 826.87 101.51 828.19 97.27 831.62 94.69 M 786.61 140.52 C 781.54 145.16 777.82 151.86 778.27 158.90 C 778.07 164.13 780.63 169.05 783.99 172.90 C 785.33 174.71 787.04 176.19 788.97 177.35 C 789.20 177.52 789.67 177.85 789.90 178.01 C 792.41 179.64 795.29 180.66 798.29 180.86 C 801.75 180.80 805.37 181.17 808.68 179.91 C 815.10 177.86 819.86 172.48 822.63 166.51 C 822.68 166.44 822.76 166.28 822.80 166.21 L 822.85 164.72 L 823.77 164.56 L 824.24 163.59 L 823.77 162.82 C 824.42 158.41 824.23 153.74 822.43 149.61 C 822.41 149.56 822.37 149.47 822.35 149.42 L 821.54 147.78 C 821.50 147.71 821.41 147.56 821.37 147.48 C 818.67 142.44 814.38 138.24 808.94 136.30 C 801.42 134.05 792.59 135.17 786.61 140.52 Z" />
<path fill="#ff0000" opacity="1.00" d=" M 681.33 92.47 C 689.89 91.26 699.52 91.03 707.10 95.79 C 713.05 99.90 711.80 107.78 712.24 114.03 C 712.41 138.35 712.26 162.68 712.31 187.00 C 712.24 197.06 712.62 207.16 711.65 217.18 C 710.75 220.91 708.81 224.73 705.17 226.41 C 698.54 229.52 691.01 228.92 683.90 228.74 C 678.94 228.16 673.22 227.05 670.30 222.54 C 667.78 218.13 667.63 212.89 667.30 207.95 C 667.28 177.31 667.32 146.66 667.28 116.01 C 667.32 110.46 667.43 104.67 669.56 99.46 C 671.29 94.67 676.85 93.27 681.33 92.47 Z" />
<path fill="#ff0000" opacity="1.00" d=" M 909.42 92.54 C 918.07 91.19 927.65 91.06 935.44 95.57 C 940.72 99.12 940.70 106.27 940.80 111.95 C 940.83 144.62 940.85 177.30 940.79 209.98 C 940.89 215.08 939.91 220.54 936.58 224.57 C 933.12 227.52 928.38 228.33 924.00 228.78 C 916.68 228.92 908.81 229.52 902.20 225.78 C 900.25 224.73 898.81 222.95 898.11 220.87 C 895.94 215.51 896.07 209.63 896.11 203.95 C 896.11 173.31 896.12 142.67 896.10 112.03 C 896.17 107.28 896.61 102.29 898.88 98.02 C 901.16 94.52 905.53 93.25 909.42 92.54 Z" />
<path fill="#ff0000" opacity="1.00" d=" M 1126.66 96.59 C 1135.75 92.58 1146.03 90.52 1155.89 92.51 C 1161.62 93.60 1167.05 96.04 1172.03 99.03 C 1175.04 100.77 1176.47 104.55 1179.96 105.54 C 1180.55 100.73 1183.19 95.95 1187.80 93.96 C 1195.32 90.54 1203.96 91.21 1211.92 92.39 C 1216.20 93.07 1221.00 94.98 1222.51 99.46 C 1225.92 108.21 1224.46 117.85 1224.78 127.02 C 1224.78 151.67 1224.78 176.32 1224.78 200.97 C 1224.88 207.16 1224.84 213.47 1223.11 219.46 C 1222.06 223.27 1218.75 225.95 1215.08 227.06 C 1206.58 229.47 1197.47 228.82 1189.03 226.58 C 1183.74 225.12 1181.07 219.88 1179.97 214.91 C 1176.55 217.03 1174.41 220.68 1170.84 222.61 C 1163.73 227.12 1155.16 228.27 1146.92 228.66 C 1142.97 228.15 1138.80 228.17 1135.09 226.68 C 1134.58 226.55 1133.55 226.30 1133.04 226.18 L 1131.97 225.80 C 1131.50 225.58 1130.54 225.15 1130.06 224.93 C 1120.36 221.86 1112.26 214.95 1105.30 207.71 C 1093.32 195.29 1086.15 178.25 1086.18 160.96 C 1085.79 146.18 1090.51 131.28 1099.39 119.46 C 1106.63 109.97 1115.71 101.58 1126.66 96.59 M 1142.69 140.01 C 1141.11 139.05 1138.41 141.29 1138.93 143.00 C 1138.69 143.19 1138.20 143.57 1137.96 143.76 C 1136.24 145.26 1134.95 147.16 1134.04 149.24 C 1129.88 156.38 1130.10 165.96 1135.10 172.63 C 1136.78 175.60 1139.30 178.09 1142.30 179.75 C 1143.78 180.68 1145.35 181.52 1147.04 182.09 C 1150.58 183.25 1154.41 183.26 1158.11 183.07 C 1158.55 183.04 1159.43 182.97 1159.87 182.94 C 1163.41 182.28 1166.76 180.66 1169.36 178.14 L 1169.76 177.80 C 1171.61 176.52 1172.91 174.65 1174.00 172.70 L 1174.68 171.73 C 1174.70 171.70 1174.74 171.64 1174.76 171.61 C 1175.06 170.89 1175.66 169.45 1175.96 168.73 L 1176.86 168.61 L 1177.31 167.64 L 1176.84 166.84 C 1178.51 162.28 1178.13 157.25 1176.63 152.70 C 1176.61 152.65 1176.56 152.54 1176.54 152.48 C 1173.96 145.45 1168.33 139.19 1160.89 137.33 C 1154.85 135.94 1147.83 136.29 1142.69 140.01 Z" />
</g>
<g id="#3e353726">
<path fill="#3e3537" opacity="0.15" d=" M 1253.52 31.56 C 1253.55 31.52 1253.61 31.44 1253.65 31.40 C 1253.61 31.44 1253.55 31.52 1253.52 31.56 Z" />
<path fill="#3e3537" opacity="0.15" d=" M 1176.54 152.48 C 1176.56 152.54 1176.61 152.65 1176.63 152.70 C 1176.61 152.65 1176.56 152.54 1176.54 152.48 Z" />
<path fill="#3e3537" opacity="0.15" d=" M 822.63 166.51 C 822.68 166.44 822.76 166.28 822.80 166.21 C 822.76 166.28 822.68 166.44 822.63 166.51 Z" />
<path fill="#3e3537" opacity="0.15" d=" M 578.06 224.76 C 578.55 224.59 579.55 224.23 580.05 224.06 L 579.84 224.95 L 578.81 225.32 L 578.06 224.76 Z" />
<path fill="#3e3537" opacity="0.15" d=" M 699.45 370.30 L 700.31 369.65 L 701.17 369.95 C 700.75 370.27 699.91 370.90 699.49 371.22 L 699.45 370.30 Z" />
<path fill="#3e3537" opacity="0.15" d=" M 1321.26 374.18 C 1320.82 372.49 1321.46 371.77 1323.19 372.03 C 1322.89 373.06 1322.24 373.78 1321.26 374.18 Z" />
<path fill="#3e3537" opacity="0.15" d=" M 1359.82 383.24 C 1361.47 383.70 1361.68 384.61 1360.46 385.98 C 1359.81 385.16 1359.59 384.25 1359.82 383.24 Z" />
<path fill="#3e3537" opacity="0.15" d=" M 699.90 409.91 C 700.92 410.07 701.69 410.62 702.21 411.55 C 700.49 412.15 699.72 411.60 699.90 409.91 Z" />
</g>
<g id="#1a8bbc41">
<path fill="#1a8bbc" opacity="0.25" d=" M 219.68 49.24 C 226.33 52.22 232.44 56.25 238.44 60.33 C 241.36 62.28 244.22 64.53 247.70 65.36 C 247.72 65.62 247.77 66.16 247.79 66.42 C 246.94 66.50 246.10 66.62 245.28 66.79 C 243.95 63.87 241.03 62.26 238.47 60.56 C 232.23 56.75 225.95 53.01 219.68 49.24 Z" />
</g>
<g id="#00005aff">
<path fill="#00005a" opacity="1.00" d=" M 245.28 66.79 C 246.10 66.62 246.94 66.50 247.79 66.42 C 280.21 90.39 305.46 123.69 320.36 161.12 C 319.12 163.52 317.56 165.73 315.76 167.74 C 295.79 191.78 276.29 216.22 256.19 240.14 C 277.26 266.47 299.10 292.20 320.09 318.59 C 320.11 318.77 320.16 319.12 320.19 319.29 C 312.64 339.74 301.22 358.67 287.72 375.74 C 275.81 390.39 262.24 403.83 246.88 414.85 L 246.44 415.15 C 214.00 375.70 181.71 336.12 149.30 296.65 C 134.02 277.76 118.33 259.19 103.24 240.15 C 112.40 229.33 121.22 218.23 130.28 207.32 C 168.56 160.44 207.09 113.73 245.28 66.79 Z" />
</g>
<g id="#c9121a45">
<path fill="#c9121a" opacity="0.27" d=" M 523.45 83.65 C 533.29 83.29 543.15 83.67 553.00 83.43 C 557.09 83.69 561.24 84.37 565.05 85.96 C 560.74 84.94 556.42 83.71 551.97 83.72 C 542.46 83.73 532.95 83.89 523.45 83.65 Z" />
<path fill="#c9121a" opacity="0.27" d=" M 565.80 86.23 C 569.19 87.20 572.33 88.86 575.26 90.80 C 572.20 89.10 569.01 87.63 565.80 86.23 Z" />
<path fill="#c9121a" opacity="0.27" d=" M 821.37 147.48 C 821.41 147.56 821.50 147.71 821.54 147.78 C 821.50 147.71 821.41 147.56 821.37 147.48 Z" />
<path fill="#c9121a" opacity="0.27" d=" M 590.85 161.16 C 591.38 159.38 592.31 157.77 593.69 156.51 C 594.37 158.22 592.79 161.31 590.85 161.16 Z" />
<path fill="#c9121a" opacity="0.27" d=" M 822.85 164.72 C 823.08 164.24 823.54 163.29 823.77 162.82 L 824.24 163.59 L 823.77 164.56 L 822.85 164.72 Z" />
<path fill="#c9121a" opacity="0.27" d=" M 1175.96 168.73 C 1176.18 168.26 1176.62 167.31 1176.84 166.84 L 1177.31 167.64 L 1176.86 168.61 L 1175.96 168.73 Z" />
<path fill="#c9121a" opacity="0.27" d=" M 783.99 172.90 C 785.58 174.45 787.26 175.92 788.97 177.35 C 787.04 176.19 785.33 174.71 783.99 172.90 Z" />
<path fill="#c9121a" opacity="0.27" d=" M 1060.96 219.92 C 1061.15 219.43 1061.54 218.45 1061.73 217.97 L 1062.25 218.73 L 1061.85 219.73 L 1060.96 219.92 Z" />
<path fill="#c9121a" opacity="0.27" d=" M 1130.06 224.93 C 1130.54 225.15 1131.50 225.58 1131.97 225.80 L 1131.19 226.28 L 1130.21 225.83 L 1130.06 224.93 Z" />
<path fill="#c9121a" opacity="0.27" d=" M 1133.04 226.18 C 1133.55 226.30 1134.58 226.55 1135.09 226.68 L 1134.40 227.29 L 1133.35 227.03 L 1133.04 226.18 Z" />
<path fill="#c9121a" opacity="0.27" d=" M 1051.99 227.78 C 1052.49 227.62 1053.49 227.31 1054.00 227.16 L 1053.73 228.03 L 1052.70 228.35 L 1051.99 227.78 Z" />
</g>
<g id="#545454ff">
<path fill="#545454" opacity="1.00" d=" M 582.03 95.87 C 591.64 103.49 598.26 115.34 598.99 127.66 L 599.07 129.13 C 598.12 116.26 591.67 104.32 582.03 95.87 Z" />
<path fill="#545454" opacity="1.00" d=" M 1138.93 143.00 C 1138.41 141.29 1141.11 139.05 1142.69 140.01 C 1141.59 141.21 1140.30 142.19 1138.93 143.00 Z" />
<path fill="#545454" opacity="1.00" d=" M 1134.04 149.24 C 1134.95 147.16 1136.24 145.26 1137.96 143.76 C 1136.59 145.54 1135.28 147.38 1134.04 149.24 Z" />
<path fill="#545454" opacity="1.00" d=" M 1135.10 172.63 C 1137.18 175.29 1139.59 177.70 1142.30 179.75 C 1139.30 178.09 1136.78 175.60 1135.10 172.63 Z" />
<path fill="#545454" opacity="1.00" d=" M 1169.76 177.80 C 1171.21 176.14 1172.63 174.44 1174.00 172.70 C 1172.91 174.65 1171.61 176.52 1169.76 177.80 Z" />
<path fill="#545454" opacity="1.00" d=" M 789.90 178.01 C 792.58 179.26 795.39 180.25 798.29 180.86 C 795.29 180.66 792.41 179.64 789.90 178.01 Z" />
<path fill="#545454" opacity="1.00" d=" M 1159.87 182.94 C 1163.27 181.88 1166.44 180.18 1169.36 178.14 C 1166.76 180.66 1163.41 182.28 1159.87 182.94 Z" />
<path fill="#545454" opacity="1.00" d=" M 593.24 266.44 C 595.51 265.60 597.90 265.27 600.33 265.37 C 600.35 265.69 600.38 266.33 600.40 266.65 C 601.19 266.56 602.77 266.39 603.55 266.30 L 603.30 267.44 C 604.77 267.47 606.71 267.42 606.65 269.45 C 608.09 269.28 609.64 269.71 609.68 271.46 C 611.92 271.07 613.11 273.22 614.51 274.53 C 616.95 277.36 619.98 279.63 622.32 282.54 C 622.38 283.08 622.48 284.16 622.53 284.70 L 623.92 284.37 C 623.72 284.90 623.31 285.97 623.11 286.50 L 624.48 286.51 C 624.49 288.24 624.52 289.97 624.56 291.70 L 623.31 291.29 C 623.41 292.16 623.61 293.88 623.71 294.74 L 622.52 294.27 C 622.51 298.48 618.36 300.95 616.29 304.22 C 613.28 309.01 607.78 311.78 605.19 316.80 C 594.57 327.64 583.70 338.24 573.06 349.07 C 572.32 349.92 571.32 350.42 570.30 350.83 C 566.57 354.33 563.12 358.12 559.34 361.57 C 559.35 362.88 559.37 364.18 559.42 365.50 C 576.91 382.44 593.76 400.05 611.27 416.97 C 612.01 420.37 615.67 421.77 617.46 424.55 C 619.71 428.06 623.74 431.20 623.41 435.75 L 624.67 435.26 C 624.68 437.75 624.01 440.15 623.36 442.54 L 622.13 442.41 C 622.26 442.83 622.52 443.67 622.65 444.09 C 620.89 444.81 619.58 446.16 619.08 448.00 C 616.38 451.07 612.48 452.76 610.07 456.15 C 608.68 456.41 607.51 457.15 607.03 458.54 C 606.63 458.47 605.82 458.33 605.41 458.26 L 605.36 459.73 C 604.87 459.61 603.91 459.38 603.43 459.26 L 603.28 460.36 C 600.83 461.22 598.26 461.71 595.66 461.58 L 595.53 460.23 C 595.01 460.37 593.98 460.66 593.47 460.81 L 593.59 459.12 C 593.15 459.27 592.27 459.58 591.83 459.74 C 590.60 456.96 587.90 455.30 585.96 453.07 C 583.18 450.49 580.79 447.45 577.71 445.23 C 577.60 443.92 577.16 442.65 575.81 442.22 C 574.27 440.36 572.76 438.38 570.58 437.24 C 570.69 435.84 570.07 434.80 568.88 434.13 C 564.11 429.78 560.91 424.04 555.73 420.10 C 555.61 418.83 554.96 417.83 553.97 417.07 C 549.13 412.79 545.82 407.18 540.92 402.97 C 539.21 399.12 535.26 396.94 532.68 393.72 C 531.59 390.62 528.43 388.97 526.49 386.45 C 525.53 386.47 523.61 386.50 522.65 386.51 C 522.41 405.33 522.77 424.16 522.46 442.97 C 522.51 445.21 521.88 447.37 521.35 449.53 L 520.16 449.43 C 520.28 449.93 520.53 450.92 520.65 451.41 L 519.54 451.41 C 519.19 452.77 519.57 454.97 517.34 454.63 L 517.43 455.70 C 516.90 455.56 515.83 455.27 515.30 455.12 L 515.83 456.52 C 506.77 459.63 496.91 459.92 487.67 457.33 C 487.64 457.14 487.57 456.78 487.54 456.59 C 484.43 456.50 482.50 453.55 480.67 451.42 C 480.62 450.91 480.51 449.89 480.46 449.38 L 479.65 449.48 C 479.22 446.65 478.40 443.87 478.48 441.00 C 478.50 387.80 478.49 334.59 478.49 281.39 L 479.70 281.66 C 479.59 280.81 479.36 279.12 479.25 278.28 L 480.49 278.72 C 480.52 276.10 481.77 272.92 484.60 272.30 C 485.21 271.67 485.81 271.05 486.42 270.42 C 487.26 270.47 488.94 270.58 489.78 270.63 L 489.18 269.32 C 490.69 269.42 492.20 269.52 493.72 269.62 L 493.36 268.48 C 498.05 268.52 502.75 268.48 507.44 268.51 L 507.37 269.61 C 508.83 269.52 510.30 269.43 511.77 269.34 L 511.25 270.68 C 512.12 270.58 513.86 270.36 514.74 270.25 L 514.24 271.49 C 516.56 270.89 518.01 272.82 519.30 274.36 C 519.71 275.56 520.52 276.54 521.31 277.52 C 522.80 282.54 522.47 287.81 522.58 292.98 C 522.53 308.74 522.65 324.50 522.51 340.26 C 523.86 340.39 525.20 340.47 526.56 340.54 C 528.31 338.63 530.13 336.78 531.86 334.84 C 533.08 334.23 533.68 333.18 533.61 331.82 C 534.44 331.29 535.20 330.66 535.89 329.95 C 537.23 328.59 538.61 327.25 539.99 325.93 C 540.90 325.11 541.57 324.11 541.87 322.92 C 543.96 320.99 546.05 319.06 547.83 316.83 C 549.15 316.22 549.74 315.12 549.49 313.67 C 550.58 313.43 551.34 312.80 551.75 311.77 C 553.32 310.68 554.79 309.42 555.72 307.71 C 557.27 307.49 557.55 306.05 557.61 304.74 C 558.56 304.35 559.30 303.71 559.83 302.82 C 560.95 301.94 562.11 301.07 562.75 299.76 C 564.66 299.04 565.08 297.07 565.64 295.32 C 567.71 293.81 568.93 291.16 571.48 290.37 C 571.00 287.84 573.62 286.57 575.05 284.96 C 577.69 282.89 578.97 279.64 581.50 277.46 C 584.96 274.27 587.99 270.63 591.55 267.57 C 592.10 267.56 593.19 267.53 593.74 267.51 L 593.24 266.44 Z" />
<path fill="#545454" opacity="1.00" d=" M 1455.11 277.75 C 1456.71 275.74 1459.70 276.20 1461.99 275.64 C 1469.42 275.48 1477.98 274.39 1484.14 279.52 C 1486.02 280.46 1486.45 282.82 1488.27 283.86 C 1491.25 297.22 1489.48 311.02 1490.36 324.58 C 1492.31 324.50 1494.29 324.45 1496.28 324.34 C 1498.27 322.91 1500.78 323.53 1503.08 323.43 C 1509.70 323.73 1516.68 322.31 1522.80 325.60 C 1524.16 327.15 1525.61 328.63 1527.23 329.93 C 1529.41 334.33 1529.59 339.26 1530.33 344.03 C 1530.69 347.85 1529.21 351.54 1529.39 355.37 L 1528.34 355.45 C 1528.42 356.26 1528.59 357.89 1528.67 358.71 L 1527.23 358.26 C 1527.35 358.76 1527.59 359.74 1527.71 360.24 L 1526.65 360.37 C 1526.21 361.39 1525.72 362.38 1525.17 363.34 C 1524.28 363.63 1523.41 363.93 1522.58 364.26 C 1517.24 367.55 1510.89 366.38 1504.98 366.54 C 1501.68 366.51 1498.40 366.49 1495.13 366.63 L 1495.82 365.46 C 1493.98 365.48 1492.16 365.49 1490.36 365.46 C 1489.86 371.63 1490.19 377.82 1490.10 384.01 C 1490.20 393.45 1489.79 402.91 1490.54 412.33 C 1491.52 414.05 1492.41 416.10 1494.42 416.85 C 1501.66 419.43 1509.98 416.67 1516.83 420.66 C 1518.26 422.06 1519.77 423.46 1520.81 425.23 C 1522.69 428.84 1522.61 433.01 1522.76 436.99 C 1522.63 442.02 1522.67 447.33 1520.06 451.83 C 1518.79 453.46 1517.06 454.72 1516.15 456.62 C 1515.74 456.51 1514.90 456.28 1514.49 456.17 L 1514.42 457.32 C 1504.91 460.38 1494.73 459.31 1485.08 457.60 C 1482.39 457.30 1479.75 456.77 1477.27 455.70 C 1476.24 455.36 1475.23 455.02 1474.24 454.69 C 1471.45 453.95 1468.99 452.42 1466.39 451.25 C 1464.34 449.32 1460.81 448.42 1460.37 445.26 C 1459.81 445.40 1458.70 445.68 1458.15 445.82 C 1458.30 445.27 1458.61 444.17 1458.77 443.62 C 1457.55 443.54 1456.64 442.97 1456.04 441.90 C 1455.68 441.61 1454.98 441.03 1454.62 440.74 C 1452.65 435.45 1449.15 430.70 1448.46 424.96 C 1446.02 416.17 1446.45 407.00 1446.43 397.98 C 1446.43 387.56 1446.41 377.13 1446.44 366.71 C 1440.78 365.85 1434.75 367.78 1429.40 365.25 C 1427.64 364.09 1426.37 362.34 1424.77 360.99 C 1421.02 353.48 1422.45 344.97 1422.60 336.94 C 1422.83 334.31 1424.31 331.98 1424.61 329.36 L 1425.88 329.63 C 1425.76 329.20 1425.51 328.34 1425.39 327.91 C 1426.47 327.44 1427.32 326.70 1427.94 325.69 C 1431.92 324.25 1436.71 321.85 1440.74 324.41 C 1442.60 324.45 1444.49 324.42 1446.39 324.36 C 1446.60 311.96 1446.10 299.54 1446.74 287.15 C 1447.92 284.05 1449.01 280.43 1451.98 278.56 C 1452.39 278.61 1453.22 278.70 1453.63 278.75 L 1453.44 277.24 C 1453.86 277.37 1454.69 277.63 1455.11 277.75 Z" />
<path fill="#545454" opacity="1.00" d=" M 699.32 322.18 C 707.97 320.12 717.03 318.45 725.89 320.25 C 731.34 320.31 736.36 322.71 741.69 323.45 L 741.35 324.86 C 741.94 324.65 743.11 324.23 743.70 324.02 L 743.24 325.67 C 744.12 325.56 745.86 325.32 746.74 325.21 L 746.27 326.46 C 747.84 326.40 749.28 327.05 750.69 327.66 C 751.81 328.83 753.15 329.73 754.68 330.28 C 761.60 335.32 768.76 340.36 773.80 347.42 C 776.12 350.37 778.20 353.49 780.33 356.58 C 780.37 357.13 780.44 358.22 780.47 358.76 L 781.57 358.18 C 781.96 359.68 782.42 361.18 782.52 362.74 L 783.74 362.27 C 783.64 363.14 783.43 364.90 783.33 365.77 L 785.00 365.28 C 784.78 365.86 784.35 367.03 784.14 367.61 L 785.63 367.38 C 785.54 368.82 785.46 370.26 785.39 371.70 L 786.60 371.48 C 786.57 372.71 786.57 373.95 786.59 375.20 C 788.04 376.89 787.43 379.23 787.66 381.27 C 788.34 382.40 788.71 383.66 788.58 385.00 C 788.54 389.87 788.49 394.75 788.60 399.62 L 787.39 399.26 C 787.50 401.44 787.58 403.63 787.67 405.82 L 786.37 405.21 C 786.48 406.76 786.59 408.31 786.71 409.87 L 785.51 409.19 C 786.12 413.30 783.12 416.57 782.34 420.39 L 781.20 420.42 C 781.34 420.93 781.62 421.96 781.76 422.47 L 780.20 422.39 C 780.33 422.91 780.59 423.94 780.72 424.46 L 779.23 424.40 C 779.31 424.81 779.45 425.62 779.53 426.02 C 777.90 426.68 777.27 428.32 776.47 429.73 L 776.69 430.42 C 774.97 430.20 774.53 431.58 774.14 432.88 C 772.69 434.84 770.20 436.03 769.43 438.44 C 767.52 438.23 767.48 440.07 767.49 441.46 C 764.87 441.00 763.82 443.71 762.16 445.18 C 761.20 445.66 760.59 446.43 760.33 447.49 C 758.92 447.40 757.41 447.67 757.32 449.40 C 756.35 449.84 755.38 450.29 754.42 450.75 C 751.00 453.69 746.53 454.80 742.56 456.74 C 741.23 457.51 739.67 457.40 738.21 457.55 L 738.65 458.65 C 737.83 458.58 736.19 458.43 735.37 458.36 L 735.44 459.39 C 728.94 459.91 722.59 462.02 716.00 461.48 C 710.64 461.87 705.61 459.36 700.28 459.49 L 700.80 458.40 C 700.06 458.42 698.58 458.46 697.84 458.49 C 692.34 456.17 686.33 454.60 681.61 450.77 C 680.54 450.24 679.47 449.71 678.41 449.20 C 676.70 447.65 673.88 447.04 673.36 444.52 C 671.37 444.99 670.21 443.24 669.00 442.06 C 667.24 440.21 665.43 438.42 663.61 436.65 C 663.23 435.62 662.86 434.60 662.47 433.59 C 660.42 433.32 659.60 431.57 659.44 429.73 C 657.45 429.14 656.19 427.37 656.44 425.28 L 655.03 425.62 C 655.24 425.14 655.64 424.19 655.84 423.71 C 653.64 423.88 653.47 421.92 653.41 420.33 L 652.22 420.39 C 652.36 419.90 652.62 418.93 652.76 418.44 L 651.54 418.36 C 651.43 417.09 651.42 415.77 650.71 414.69 C 647.68 406.84 645.89 398.40 646.45 389.94 C 646.73 387.07 645.56 383.76 647.40 381.25 C 647.44 379.37 647.43 377.49 647.40 375.62 C 647.70 375.62 648.31 375.62 648.61 375.62 C 648.50 374.18 648.40 372.74 648.31 371.31 L 649.69 371.73 C 649.57 370.86 649.34 369.13 649.22 368.26 L 650.69 368.76 C 650.57 367.88 650.34 366.14 650.22 365.27 L 651.89 365.66 C 651.66 365.05 651.20 363.83 650.97 363.21 L 652.68 363.79 C 652.57 362.89 652.34 361.10 652.23 360.21 L 653.49 360.78 C 652.93 358.09 655.58 356.64 656.29 354.31 C 659.95 348.44 665.12 343.83 669.95 338.96 C 673.21 335.29 677.47 332.76 681.31 329.77 C 683.45 328.97 685.31 327.13 687.76 327.49 L 687.26 325.97 C 687.86 326.20 689.07 326.66 689.67 326.89 L 689.29 325.02 C 689.89 325.23 691.08 325.66 691.67 325.87 L 691.24 324.37 C 694.11 324.52 696.53 322.64 699.32 322.18 M 701.17 369.95 L 700.31 369.65 L 699.45 370.30 L 699.49 371.22 C 698.16 371.40 697.45 372.69 696.62 373.58 C 690.82 380.76 690.08 390.82 692.36 399.48 C 693.79 403.50 695.92 407.94 699.90 409.91 C 699.72 411.60 700.49 412.15 702.21 411.55 C 708.58 417.09 718.29 418.12 726.07 415.11 C 733.34 412.26 740.38 406.94 742.53 399.09 C 744.60 391.24 744.25 382.23 739.77 375.25 C 731.33 363.43 712.33 360.48 701.17 369.95 Z" />
<path fill="#545454" opacity="1.00" d=" M 1012.71 327.67 C 1021.53 324.63 1030.48 320.88 1040.05 321.43 C 1050.97 320.72 1061.86 323.77 1071.67 328.34 C 1072.76 328.82 1073.88 329.30 1075.01 329.77 C 1075.76 331.07 1076.92 331.74 1078.48 331.62 L 1078.39 332.78 C 1078.80 332.69 1079.60 332.53 1080.01 332.45 C 1080.96 334.04 1082.12 335.59 1084.12 335.84 C 1086.31 338.39 1088.76 340.70 1091.22 343.00 C 1094.15 348.65 1090.74 354.56 1088.25 359.63 C 1084.66 364.87 1081.00 370.53 1075.39 373.74 L 1075.26 374.68 C 1074.78 374.56 1073.81 374.33 1073.32 374.21 L 1073.63 375.51 C 1067.30 377.19 1061.59 373.33 1056.39 370.30 L 1056.59 369.62 C 1054.92 368.79 1053.40 367.46 1051.45 367.52 L 1051.72 366.40 C 1049.86 366.49 1048.04 366.57 1046.22 366.66 L 1046.79 365.42 C 1043.93 365.59 1041.09 365.59 1038.25 365.43 L 1038.67 366.62 C 1036.89 366.55 1035.11 366.48 1033.37 366.41 L 1033.36 367.70 C 1032.89 367.60 1031.94 367.40 1031.47 367.29 C 1031.42 367.59 1031.30 368.18 1031.25 368.47 C 1027.74 368.87 1025.30 371.69 1022.52 373.55 C 1021.38 375.43 1019.61 377.03 1019.30 379.31 L 1018.54 379.39 C 1016.44 386.36 1017.22 393.62 1017.49 400.77 L 1018.97 400.31 C 1018.76 400.88 1018.33 402.04 1018.11 402.62 L 1019.90 402.35 C 1019.71 402.93 1019.33 404.08 1019.14 404.65 L 1020.99 404.36 C 1020.78 404.84 1020.37 405.80 1020.16 406.28 C 1022.23 406.77 1023.94 408.46 1024.64 410.46 C 1026.15 410.25 1028.04 410.83 1027.69 412.87 C 1028.17 412.68 1029.11 412.31 1029.58 412.13 L 1029.39 413.88 C 1029.94 413.68 1031.05 413.30 1031.61 413.11 L 1031.27 414.47 C 1034.90 414.54 1038.36 415.97 1042.03 415.65 C 1046.07 415.91 1049.77 414.07 1053.68 413.44 L 1053.49 412.20 C 1054.03 412.34 1055.11 412.64 1055.65 412.78 L 1055.41 411.13 C 1055.97 411.31 1057.10 411.66 1057.66 411.84 L 1057.36 410.01 C 1057.85 410.23 1058.82 410.66 1059.30 410.88 C 1059.04 408.69 1060.96 408.12 1062.68 408.49 L 1062.39 407.03 C 1062.95 407.24 1064.09 407.66 1064.65 407.87 L 1064.28 406.37 C 1066.75 406.44 1069.24 406.44 1071.74 406.50 C 1072.48 407.71 1073.61 408.50 1075.04 408.77 C 1075.62 410.03 1076.81 410.53 1078.12 410.79 C 1079.98 413.01 1082.00 415.11 1084.29 416.91 C 1084.75 419.72 1087.65 421.03 1088.85 423.47 C 1091.86 427.42 1093.34 432.65 1091.36 437.39 L 1090.70 437.40 C 1087.89 444.70 1080.44 447.87 1074.64 452.29 C 1073.64 452.74 1072.65 453.20 1071.68 453.67 C 1070.12 454.82 1068.31 455.49 1066.38 455.44 L 1066.52 456.33 C 1056.08 459.49 1044.88 461.78 1034.01 459.62 C 1027.99 459.37 1022.39 456.98 1016.68 455.31 L 1016.64 454.50 C 1015.25 454.08 1013.87 453.67 1012.47 453.36 L 1012.68 452.64 C 1009.93 452.17 1007.86 450.15 1005.28 449.27 C 1001.91 446.98 998.73 444.38 995.28 442.28 C 992.36 439.49 989.52 436.64 986.71 433.75 C 986.40 432.51 985.52 431.64 984.76 430.71 C 983.63 428.56 982.25 426.56 980.71 424.71 C 979.36 421.32 977.17 418.30 976.37 414.71 C 973.81 409.45 972.89 403.41 972.25 397.61 C 970.64 388.32 972.42 378.83 974.85 369.84 C 976.23 364.44 979.44 359.79 981.64 354.71 C 983.25 354.53 983.61 353.08 983.51 351.68 C 985.25 351.62 985.66 350.10 985.47 348.64 C 986.66 348.49 987.39 347.85 987.65 346.71 C 991.23 344.30 993.82 340.73 997.01 337.85 C 998.37 337.45 999.92 337.08 999.50 335.21 L 1000.67 335.77 L 1000.49 334.67 C 1001.90 334.62 1003.48 334.33 1003.78 332.68 C 1005.30 332.68 1006.57 331.96 1006.92 330.37 C 1007.34 330.47 1008.18 330.67 1008.60 330.78 L 1008.56 329.25 C 1009.06 329.38 1010.07 329.64 1010.57 329.76 L 1010.66 328.30 C 1011.14 328.40 1012.10 328.61 1012.58 328.72 L 1012.71 327.67 Z" />
<path fill="#545454" opacity="1.00" d=" M 1174.35 321.25 C 1186.03 319.15 1197.91 321.00 1209.33 323.56 C 1209.36 323.87 1209.44 324.47 1209.47 324.77 C 1209.96 324.62 1210.94 324.32 1211.42 324.17 L 1211.33 325.64 C 1212.15 325.55 1213.79 325.37 1214.61 325.28 L 1214.37 326.87 C 1214.93 326.66 1216.06 326.24 1216.62 326.04 L 1216.27 327.43 C 1218.25 327.67 1221.43 327.91 1221.63 330.51 C 1223.10 330.19 1224.65 330.69 1224.65 332.48 C 1227.61 332.18 1228.98 335.40 1231.00 336.99 C 1232.55 339.03 1235.92 340.37 1235.50 343.36 C 1237.59 343.68 1239.08 345.63 1238.49 347.79 L 1239.94 347.24 C 1239.75 347.84 1239.36 349.04 1239.17 349.64 L 1240.93 349.36 C 1240.74 349.93 1240.37 351.08 1240.18 351.65 L 1241.96 351.40 C 1241.75 351.96 1241.32 353.08 1241.11 353.63 L 1242.39 353.33 C 1247.20 364.37 1248.94 377.19 1244.88 388.74 C 1243.98 390.51 1243.00 392.23 1242.26 394.07 C 1239.67 396.40 1236.95 398.67 1235.05 401.62 C 1234.64 401.52 1233.82 401.32 1233.41 401.22 L 1233.37 402.74 C 1232.89 402.62 1231.91 402.39 1231.42 402.27 L 1231.28 403.34 C 1229.47 403.97 1227.63 404.53 1225.75 404.79 C 1224.52 405.29 1223.27 405.54 1221.98 405.54 C 1201.11 405.40 1180.24 405.64 1159.37 405.41 C 1159.45 407.85 1159.49 410.29 1159.45 412.74 L 1160.45 412.52 C 1160.28 413.97 1160.80 415.17 1162.10 415.87 C 1162.83 416.67 1163.56 417.50 1164.30 418.33 C 1166.05 419.12 1167.79 419.93 1169.56 420.73 L 1169.43 421.87 C 1169.95 421.67 1171.00 421.28 1171.52 421.09 L 1171.37 422.81 C 1171.93 422.63 1173.04 422.27 1173.60 422.10 L 1173.27 423.65 C 1174.14 423.55 1175.88 423.34 1176.75 423.24 L 1176.22 424.62 C 1178.08 424.50 1179.98 424.41 1181.87 424.31 L 1181.18 425.57 C 1185.19 425.35 1189.23 425.53 1193.26 425.37 C 1196.26 423.54 1199.97 424.87 1203.29 424.37 C 1207.28 422.82 1211.64 422.25 1215.54 420.34 C 1219.55 418.32 1224.48 417.46 1228.64 419.63 C 1229.80 420.71 1230.98 421.79 1232.12 422.92 C 1232.79 423.60 1233.51 424.23 1234.30 424.81 C 1234.40 426.33 1235.01 427.64 1236.70 427.90 C 1236.58 428.32 1236.33 429.16 1236.20 429.58 L 1237.66 429.58 C 1237.58 430.35 1237.43 431.91 1237.36 432.68 L 1238.39 432.61 C 1238.95 434.47 1239.51 436.33 1239.77 438.27 C 1240.46 439.68 1240.64 441.22 1240.75 442.78 L 1239.40 442.21 C 1239.45 443.63 1239.51 445.06 1239.56 446.50 C 1237.48 448.66 1236.21 451.49 1233.71 453.26 C 1232.50 453.68 1231.48 454.42 1230.64 455.35 C 1230.04 455.36 1228.85 455.38 1228.26 455.39 L 1228.61 456.87 C 1228.05 456.68 1226.93 456.30 1226.38 456.10 L 1226.61 457.86 C 1226.07 457.68 1224.98 457.33 1224.44 457.15 L 1224.49 458.60 C 1223.72 458.54 1222.17 458.43 1221.39 458.37 L 1221.37 459.33 C 1215.97 460.03 1210.73 462.17 1205.22 461.43 L 1205.73 462.54 C 1201.14 462.42 1196.55 462.56 1191.97 462.52 C 1189.50 462.49 1187.20 463.80 1184.73 463.39 C 1181.40 461.57 1177.47 463.07 1173.91 462.39 C 1171.37 461.73 1168.60 461.87 1166.28 460.60 C 1165.01 460.55 1163.76 460.53 1162.53 460.52 L 1162.63 459.38 C 1161.93 459.41 1160.55 459.47 1159.86 459.49 C 1158.60 458.66 1157.11 458.42 1155.66 458.31 L 1155.52 457.24 C 1155.02 457.38 1154.02 457.66 1153.52 457.80 L 1153.68 456.55 C 1150.97 456.45 1148.77 454.82 1146.47 453.63 C 1142.25 451.38 1138.29 448.59 1135.02 445.09 C 1134.51 444.86 1133.51 444.41 1133.01 444.19 C 1132.05 440.87 1128.55 439.46 1126.83 436.67 C 1125.08 433.98 1123.19 431.38 1121.63 428.58 C 1117.34 420.20 1113.68 411.35 1112.60 401.92 C 1110.66 388.22 1112.48 373.80 1118.34 361.23 C 1118.86 360.08 1119.34 358.90 1119.62 357.66 L 1120.76 357.61 C 1120.62 357.10 1120.34 356.09 1120.20 355.59 L 1121.82 355.61 C 1121.67 355.17 1121.36 354.29 1121.20 353.85 C 1123.20 353.71 1123.75 352.10 1123.43 350.35 L 1124.24 350.64 C 1125.36 349.54 1126.84 348.50 1126.53 346.69 C 1127.61 346.43 1128.34 345.79 1128.72 344.76 C 1131.19 342.54 1134.47 340.53 1135.55 337.28 L 1136.31 337.53 C 1138.04 336.55 1139.92 335.61 1140.79 333.70 C 1142.31 333.65 1143.65 332.95 1143.85 331.29 C 1144.29 331.43 1145.17 331.73 1145.61 331.87 L 1145.41 330.57 C 1147.00 330.80 1148.22 330.09 1148.99 328.72 C 1157.25 325.65 1165.43 321.90 1174.35 321.25 M 1172.60 363.77 C 1168.41 366.37 1164.85 369.81 1161.73 373.60 C 1161.12 375.06 1160.42 376.47 1159.64 377.84 C 1159.50 379.67 1159.41 381.51 1159.35 383.36 C 1169.23 383.23 1179.12 383.31 1189.02 383.31 C 1193.71 383.61 1199.02 383.21 1202.37 379.46 C 1203.23 376.41 1204.09 373.11 1202.78 370.05 C 1201.72 366.15 1198.47 363.55 1195.06 361.75 C 1189.85 360.26 1184.13 359.76 1178.88 361.14 C 1176.63 361.62 1174.59 362.70 1172.60 363.77 Z" />
<path fill="#545454" opacity="1.00" d=" M 818.75 325.66 C 823.90 323.57 829.41 322.70 834.95 322.49 C 841.41 323.33 848.96 323.32 853.29 329.07 C 854.40 332.19 855.69 335.32 855.46 338.71 C 860.18 338.98 863.01 334.85 865.75 331.72 C 866.78 331.36 867.43 330.64 867.70 329.55 C 869.31 329.73 870.69 329.00 870.82 327.22 C 871.27 327.37 872.16 327.67 872.60 327.82 L 872.52 326.14 C 873.05 326.31 874.09 326.65 874.61 326.82 L 874.52 325.53 C 880.05 325.06 885.29 321.51 891.03 322.78 C 894.20 323.64 897.66 322.87 900.71 324.22 C 904.82 325.00 908.93 326.26 912.59 328.31 C 913.64 328.79 914.71 329.27 915.79 329.74 C 917.64 331.41 919.75 332.79 921.99 333.90 C 926.90 338.77 931.92 343.53 936.05 349.08 C 937.49 351.50 939.17 353.78 940.29 356.40 C 941.07 358.50 942.90 360.35 942.47 362.76 L 943.80 362.21 C 943.67 363.11 943.42 364.90 943.30 365.79 L 944.79 365.16 C 944.67 366.07 944.44 367.87 944.32 368.78 L 945.78 368.22 C 945.67 369.11 945.44 370.87 945.32 371.76 L 946.68 371.26 C 946.58 373.04 946.48 374.81 946.40 376.60 C 946.68 376.62 947.24 376.65 947.52 376.67 C 947.28 380.47 948.75 384.11 948.58 387.92 C 948.54 405.95 948.55 423.98 948.57 442.01 C 948.66 445.97 946.70 449.48 945.31 453.05 C 938.27 459.61 927.80 459.01 918.90 458.21 C 914.69 456.83 909.24 456.15 907.15 451.66 C 906.69 450.20 906.25 448.71 905.49 447.38 C 905.46 445.65 905.49 443.92 905.58 442.21 L 904.36 442.80 C 904.69 422.60 904.26 402.40 904.57 382.20 L 903.23 382.79 C 903.33 381.90 903.55 380.13 903.65 379.25 L 901.97 379.64 C 902.21 379.06 902.71 377.91 902.95 377.33 L 901.58 377.77 C 901.24 376.71 900.89 375.67 900.52 374.64 C 899.58 374.22 898.72 373.70 897.92 373.07 C 897.26 372.28 896.75 371.42 896.38 370.47 C 895.32 370.10 894.25 369.74 893.20 369.41 L 893.69 368.06 C 893.10 368.30 891.93 368.78 891.35 369.02 L 891.74 367.34 C 890.86 367.45 889.08 367.66 888.19 367.77 L 888.82 366.43 C 882.38 367.06 875.58 365.30 869.54 368.24 C 866.45 369.77 862.58 371.24 861.18 374.66 C 860.50 375.56 859.82 376.45 859.20 377.39 C 857.90 380.08 856.50 382.87 856.42 385.93 C 855.84 404.99 856.94 424.10 855.81 443.14 C 855.97 448.43 852.65 452.80 849.05 456.30 C 840.25 459.45 830.61 459.22 821.57 457.30 L 821.52 456.16 C 821.02 456.33 820.00 456.66 819.50 456.82 L 819.67 455.71 C 817.52 455.11 815.81 453.46 815.33 451.27 L 814.05 451.68 C 814.27 451.11 814.72 449.97 814.94 449.40 L 813.60 449.65 C 813.44 446.73 812.31 443.93 812.48 440.98 C 812.51 406.99 812.47 372.99 812.50 339.00 C 812.55 336.32 812.49 333.27 814.57 331.25 C 814.53 330.86 814.45 330.07 814.41 329.68 L 815.38 329.56 C 815.81 328.43 816.27 327.32 816.78 326.22 C 817.22 326.35 818.11 326.62 818.55 326.76 L 818.75 325.66 Z" />
<path fill="#545454" opacity="1.00" d=" M 1277.45 325.66 C 1284.78 321.61 1293.89 321.98 1301.73 324.23 C 1303.55 324.40 1305.32 324.94 1307.01 325.68 C 1308.25 327.26 1309.66 328.71 1311.26 329.97 C 1311.93 331.67 1312.41 333.43 1312.91 335.19 C 1314.36 335.95 1316.00 335.17 1317.28 334.38 C 1318.81 332.17 1320.59 329.11 1323.73 329.44 L 1323.42 328.00 C 1323.87 328.21 1324.77 328.63 1325.22 328.84 C 1325.51 327.37 1326.51 326.45 1328.02 326.40 C 1330.80 325.80 1333.39 324.44 1336.28 324.23 C 1343.25 321.94 1350.79 323.52 1357.88 324.42 L 1357.17 325.50 C 1360.76 324.77 1363.46 327.55 1366.60 328.70 C 1369.92 329.68 1372.02 332.58 1375.10 333.86 C 1378.85 337.83 1383.58 340.72 1387.06 345.02 C 1387.79 347.12 1389.57 348.49 1391.19 349.91 C 1391.44 352.25 1393.94 353.14 1394.76 355.20 C 1396.37 358.66 1398.09 362.06 1399.81 365.48 C 1406.10 380.98 1405.74 398.79 1399.45 414.24 C 1399.14 414.31 1398.53 414.44 1398.22 414.51 C 1398.39 415.01 1398.72 416.01 1398.89 416.52 L 1397.21 416.35 C 1397.38 416.91 1397.71 418.01 1397.88 418.57 L 1396.18 418.35 C 1396.36 418.92 1396.72 420.06 1396.90 420.62 L 1395.12 420.34 C 1395.34 420.92 1395.76 422.07 1395.98 422.65 L 1394.54 422.24 C 1394.60 423.73 1394.55 425.72 1392.54 425.67 C 1392.75 428.16 1390.57 429.79 1388.56 430.70 C 1388.51 433.83 1385.25 435.31 1383.51 437.50 C 1381.67 438.98 1380.36 441.96 1377.61 441.52 C 1376.91 443.55 1374.99 445.79 1372.65 445.56 C 1372.68 447.52 1370.73 447.69 1369.25 447.46 L 1369.64 448.27 C 1357.42 455.71 1341.80 457.83 1328.41 452.31 C 1326.35 451.33 1324.30 450.35 1322.33 449.24 C 1320.31 447.77 1318.12 446.50 1316.54 444.54 C 1315.46 444.48 1314.40 444.43 1313.35 444.38 C 1313.50 458.26 1313.37 472.15 1313.42 486.04 C 1313.30 493.88 1313.92 501.78 1312.36 509.52 L 1311.10 509.45 C 1311.31 509.98 1311.71 511.04 1311.91 511.57 L 1310.71 511.28 C 1309.87 513.73 1307.82 515.98 1305.29 516.67 L 1305.62 517.63 C 1304.81 517.56 1303.19 517.42 1302.38 517.35 L 1302.44 518.41 C 1297.54 518.33 1292.73 520.21 1287.84 519.03 C 1283.90 518.83 1280.28 517.33 1276.53 516.35 L 1276.71 515.31 L 1275.38 515.83 L 1275.62 514.35 L 1274.45 514.59 C 1274.01 512.25 1272.47 510.37 1271.66 508.19 C 1270.32 503.92 1270.62 499.40 1270.61 495.00 C 1270.62 443.69 1270.61 392.38 1270.62 341.07 C 1270.57 336.06 1272.25 331.15 1274.95 326.96 C 1275.74 326.48 1276.58 326.05 1277.45 325.66 M 1330.55 367.36 C 1327.93 368.48 1324.65 369.42 1323.19 372.03 C 1321.46 371.77 1320.82 372.49 1321.26 374.18 C 1317.09 377.67 1315.27 383.63 1315.27 388.98 C 1314.62 400.51 1324.31 411.86 1336.03 412.24 C 1347.55 413.31 1358.85 404.51 1360.72 393.12 C 1361.00 390.78 1361.65 388.15 1360.46 385.98 C 1361.68 384.61 1361.47 383.70 1359.82 383.24 C 1359.55 379.17 1356.70 375.75 1354.08 372.82 C 1348.21 366.46 1338.56 365.25 1330.55 367.36 Z" />
</g>
</svg>
