<?xml version="1.0" encoding="UTF-8" ?>
<!DOCTYPE svg PUBLIC "-//W3C//DTD SVG 1.1//EN" "http://www.w3.org/Graphics/SVG/1.1/DTD/svg11.dtd">
<svg width="1554pt" height="541pt" viewBox="0 0 1554 541" version="1.1" xmlns="http://www.w3.org/2000/svg">
<g id="#02b2feff">
<path fill="#02b2fe" opacity="1.00" d=" M 18.66 24.06 C 51.76 23.97 84.85 23.92 117.94 24.08 C 156.69 23.97 195.47 34.43 228.75 54.34 C 234.65 57.87 240.37 61.69 246.03 65.57 L 246.48 65.83 C 245.07 67.32 243.71 68.85 242.39 70.42 C 198.74 123.75 155.04 177.06 111.37 230.37 C 108.80 233.59 105.91 236.58 103.74 240.09 C 104.80 243.10 107.35 245.26 109.24 247.76 C 153.58 301.78 197.79 355.89 242.12 409.91 C 243.51 411.60 244.84 413.34 246.15 415.11 C 230.51 425.98 213.88 435.62 195.95 442.22 C 175.27 450.55 153.12 454.66 130.98 456.43 C 93.56 456.57 56.14 456.56 18.72 456.44 C 18.34 420.96 18.67 385.48 18.56 350.00 C 18.63 241.35 18.42 132.70 18.66 24.06 Z" />
<path fill="#02b2fe" opacity="1.00" d=" M 262.58 232.57 C 281.77 209.23 300.82 185.79 320.08 162.51 C 328.92 184.58 333.52 208.29 334.57 232.02 C 335.72 241.98 334.24 251.97 333.62 261.92 C 331.54 281.18 327.28 300.33 320.07 318.34 C 300.85 294.77 281.53 271.26 262.25 247.73 C 260.37 245.24 257.75 243.10 256.74 240.08 C 258.39 237.36 260.58 235.02 262.58 232.57 Z" />
</g>
<g id="#fe015bff">
<path fill="#fe015b" opacity="1.00" d=" M 280.38 24.40 C 282.24 24.18 284.10 24.01 285.98 23.99 C 329.99 24.00 374.00 23.99 418.00 24.00 C 422.94 24.01 427.88 23.89 432.82 24.19 C 421.83 36.99 411.40 50.27 400.60 63.24 C 400.53 63.34 400.38 63.52 400.30 63.61 C 395.84 69.25 391.14 74.67 386.63 80.27 C 386.56 80.36 386.41 80.54 386.33 80.63 C 375.21 94.09 364.29 107.74 353.05 121.08 C 352.71 121.48 352.03 122.28 351.69 122.68 C 344.84 131.76 337.20 140.23 330.19 149.19 C 326.83 153.14 323.75 157.32 320.20 161.10 C 306.87 126.85 284.47 96.23 256.09 72.90 C 253.04 70.34 249.96 67.77 246.48 65.83 L 246.03 65.57 C 248.18 64.65 249.50 62.67 250.93 60.94 C 253.67 57.47 256.52 54.08 259.33 50.67 C 259.41 50.58 259.56 50.40 259.63 50.30 C 266.45 41.59 274.04 33.47 280.38 24.40 Z" />
<path fill="#fe015b" opacity="1.00" d=" M 523.57 83.05 C 534.31 82.92 545.07 82.86 555.80 83.06 C 556.12 83.26 556.77 83.67 557.09 83.87 C 546.20 83.34 535.26 83.75 524.35 83.69 L 523.57 83.05 Z" />
<path fill="#fe015b" opacity="1.00" d=" M 557.84 84.06 C 560.39 84.10 563.25 83.94 565.25 85.84 C 562.77 85.27 560.29 84.72 557.84 84.06 Z" />
<path fill="#fe015b" opacity="1.00" d=" M 566.00 86.09 L 566.78 85.64 L 567.74 86.13 L 567.86 87.05 C 567.39 86.81 566.47 86.33 566.00 86.09 Z" />
<path fill="#fe015b" opacity="1.00" d=" M 1111.35 106.76 C 1111.44 106.68 1111.63 106.53 1111.72 106.45 C 1111.63 106.53 1111.44 106.68 1111.35 106.76 Z" />
<path fill="#fe015b" opacity="1.00" d=" M 751.43 113.72 C 751.50 113.63 751.66 113.44 751.74 113.35 C 751.66 113.44 751.50 113.63 751.43 113.72 Z" />
<path fill="#fe015b" opacity="1.00" d=" M 813.27 138.36 C 813.37 138.43 813.58 138.56 813.68 138.62 C 813.58 138.56 813.37 138.43 813.27 138.36 Z" />
<path fill="#fe015b" opacity="1.00" d=" M 785.35 141.68 C 785.44 141.60 785.60 141.43 785.68 141.35 C 785.60 141.43 785.44 141.60 785.35 141.68 Z" />
<path fill="#fe015b" opacity="1.00" d=" M 1087.36 145.34 L 1088.22 145.13 C 1088.03 145.62 1087.65 146.60 1087.46 147.09 C 1087.44 146.66 1087.38 145.78 1087.36 145.34 Z" />
<path fill="#fe015b" opacity="1.00" d=" M 1136.31 145.73 C 1136.38 145.64 1136.53 145.45 1136.60 145.36 C 1136.53 145.45 1136.38 145.64 1136.31 145.73 Z" />
<path fill="#fe015b" opacity="1.00" d=" M 1173.37 146.33 C 1173.44 146.42 1173.57 146.62 1173.64 146.72 C 1173.57 146.62 1173.44 146.42 1173.37 146.33 Z" />
<path fill="#fe015b" opacity="1.00" d=" M 1177.16 154.96 L 1178.04 155.17 L 1178.43 156.19 L 1177.90 156.94 C 1177.71 156.44 1177.34 155.45 1177.16 154.96 Z" />
<path fill="#fe015b" opacity="1.00" d=" M 822.99 164.94 C 823.22 164.47 823.68 163.53 823.91 163.06 L 824.37 163.85 L 823.89 164.82 L 822.99 164.94 Z" />
<path fill="#fe015b" opacity="1.00" d=" M 1131.16 163.06 C 1131.68 163.92 1131.93 164.86 1131.92 165.88 C 1130.16 165.43 1129.91 164.49 1131.16 163.06 Z" />
<path fill="#fe015b" opacity="1.00" d=" M 779.98 167.04 C 780.23 167.49 780.73 168.41 780.98 168.87 L 780.06 168.80 L 779.54 167.85 L 779.98 167.04 Z" />
<path fill="#fe015b" opacity="1.00" d=" M 581.29 171.69 C 581.39 171.61 581.58 171.46 581.67 171.38 C 581.58 171.46 581.39 171.61 581.29 171.69 Z" />
<path fill="#fe015b" opacity="1.00" d=" M 1173.37 173.66 C 1173.44 173.57 1173.58 173.37 1173.65 173.27 C 1173.58 173.37 1173.44 173.57 1173.37 173.66 Z" />
<path fill="#fe015b" opacity="1.00" d=" M 1136.32 174.29 C 1136.39 174.38 1136.55 174.57 1136.62 174.66 C 1136.55 174.57 1136.39 174.38 1136.32 174.29 Z" />
<path fill="#fe015b" opacity="1.00" d=" M 559.02 182.82 C 559.53 182.66 560.55 182.33 561.06 182.16 L 560.81 183.04 L 559.76 183.38 L 559.02 182.82 Z" />
<path fill="#fe015b" opacity="1.00" d=" M 1152.23 182.94 C 1154.06 182.94 1155.91 182.94 1157.77 182.97 C 1157.22 184.86 1152.73 184.87 1152.23 182.94 Z" />
<path fill="#fe015b" opacity="1.00" d=" M 628.26 186.68 C 628.33 186.58 628.47 186.38 628.54 186.28 C 628.47 186.38 628.33 186.58 628.26 186.68 Z" />
<path fill="#fe015b" opacity="1.00" d=" M 621.25 195.66 C 621.33 195.57 621.49 195.39 621.57 195.30 C 621.49 195.39 621.33 195.57 621.25 195.66 Z" />
<path fill="#fe015b" opacity="1.00" d=" M 937.23 223.67 C 937.29 223.57 937.43 223.37 937.49 223.27 C 937.43 223.37 937.29 223.57 937.23 223.67 Z" />
<path fill="#fe015b" opacity="1.00" d=" M 1133.12 225.78 C 1133.61 225.99 1134.58 226.40 1135.07 226.60 L 1134.29 227.07 L 1133.31 226.65 L 1133.12 225.78 Z" />
<path fill="#fe015b" opacity="1.00" d=" M 929.92 227.56 C 930.40 227.35 931.36 226.94 931.84 226.73 L 931.67 227.61 L 930.70 228.03 L 929.92 227.56 Z" />
<path fill="#fe015b" opacity="1.00" d=" M 320.18 319.69 C 323.18 322.66 325.65 326.09 328.36 329.31 C 328.43 329.41 328.59 329.59 328.66 329.68 C 339.04 342.19 349.16 354.92 359.64 367.35 C 360.36 368.30 361.19 369.21 361.70 370.32 C 362.04 370.72 362.71 371.52 363.05 371.92 C 367.44 376.89 371.83 381.95 375.68 387.35 C 376.02 387.75 376.70 388.56 377.04 388.96 C 387.96 401.71 398.39 414.91 409.04 427.89 C 415.38 435.26 421.41 442.90 427.59 450.41 C 429.27 452.32 431.07 454.20 432.10 456.58 C 381.86 456.43 331.62 456.64 281.39 456.48 C 276.98 452.40 273.69 447.16 269.66 442.67 C 269.58 442.58 269.43 442.40 269.35 442.30 C 261.87 433.09 254.24 424.00 246.81 414.74 C 258.13 407.02 268.18 397.50 277.56 387.53 C 295.80 367.83 310.44 344.73 320.18 319.69 Z" />
</g>
<g id="#ff0000ff">
<path fill="#ff0000" opacity="1.00" d=" M 1265.42 26.55 C 1272.71 25.67 1280.44 25.78 1287.31 28.69 C 1293.22 31.60 1294.81 38.92 1294.76 44.96 C 1294.88 87.63 1294.76 130.31 1294.82 172.99 C 1295.08 176.67 1294.86 180.78 1297.03 183.95 C 1302.15 188.29 1309.74 183.93 1314.85 188.19 C 1320.04 191.66 1319.78 198.54 1320.58 204.05 C 1320.89 209.71 1320.15 215.45 1318.90 220.97 C 1317.74 225.88 1312.82 228.64 1308.05 228.77 C 1295.62 229.26 1282.86 229.09 1270.98 225.03 C 1265.06 222.98 1259.25 219.29 1256.63 213.38 C 1251.52 202.70 1250.85 190.63 1250.15 179.02 C 1250.07 135.34 1250.15 91.66 1250.11 47.99 C 1250.09 42.84 1250.43 37.44 1252.83 32.78 C 1255.34 28.36 1260.82 27.32 1265.42 26.55 Z" />
<path fill="#ff0000" opacity="1.00" d=" M 680.34 27.46 C 687.51 26.70 694.95 26.37 702.02 28.06 C 707.58 29.27 711.22 34.58 711.81 40.01 C 712.32 46.32 712.33 52.67 711.74 58.98 C 710.99 63.53 708.35 68.25 703.71 69.71 C 695.02 72.30 685.64 72.23 676.89 69.98 C 672.22 68.75 669.27 64.32 668.33 59.80 C 666.86 51.95 666.76 43.67 668.97 35.95 C 670.47 30.97 675.50 28.27 680.34 27.46 Z" />
<path fill="#ff0000" opacity="1.00" d=" M 908.39 27.57 C 913.88 26.66 919.52 26.78 925.07 27.12 C 929.18 27.39 933.55 28.47 936.66 31.33 C 939.84 35.47 940.92 40.83 940.78 45.97 C 940.74 52.78 941.51 60.37 937.22 66.20 C 934.05 70.46 928.35 70.75 923.54 71.36 C 918.14 72.27 912.70 71.32 907.37 70.47 C 903.75 69.84 900.36 67.67 898.68 64.36 C 896.06 59.35 896.08 53.52 896.09 48.00 C 896.11 42.91 896.38 37.51 899.01 33.00 C 901.05 29.80 904.88 28.48 908.39 27.57 Z" />
<path fill="#ff0000" opacity="1.00" d=" M 482.81 41.76 C 488.56 37.49 496.18 37.84 503.00 37.62 C 518.66 37.83 534.33 37.84 550.00 37.96 C 567.00 37.91 584.10 42.43 598.53 51.51 C 607.94 57.44 616.57 64.71 623.70 73.28 C 637.23 88.47 644.13 108.80 644.75 128.98 C 645.35 149.07 640.37 169.81 628.54 186.28 C 628.47 186.38 628.33 186.58 628.26 186.68 C 626.24 189.71 623.99 192.58 621.57 195.30 C 621.49 195.39 621.33 195.57 621.25 195.66 C 609.60 209.34 594.25 220.00 576.93 225.09 C 561.84 230.27 545.68 229.01 530.00 229.21 C 517.35 229.03 504.66 229.67 492.03 228.66 C 488.17 228.02 483.94 226.76 481.41 223.59 C 478.81 218.83 478.11 213.27 477.50 207.96 C 477.44 157.98 477.48 108.00 477.48 58.03 C 477.84 52.38 478.71 46.00 482.81 41.76 M 523.57 83.05 L 524.35 83.69 L 523.35 83.72 C 523.58 117.02 523.41 150.32 523.44 183.62 C 535.29 183.61 547.23 184.39 559.02 182.82 L 559.76 183.38 L 560.81 183.04 L 561.06 182.16 C 568.57 180.56 575.40 176.52 581.29 171.69 C 581.39 171.61 581.58 171.46 581.67 171.38 C 584.09 169.37 586.32 167.14 588.31 164.71 C 588.39 164.61 588.55 164.42 588.62 164.32 C 589.56 163.13 590.48 161.92 591.34 160.66 C 591.40 160.56 591.54 160.36 591.61 160.26 C 596.51 153.38 598.85 145.04 599.16 136.66 C 601.19 136.04 601.18 130.95 599.13 130.34 C 598.79 120.26 595.15 110.40 588.62 102.68 C 588.54 102.59 588.38 102.41 588.31 102.31 C 585.97 99.57 583.40 97.03 580.67 94.70 C 580.58 94.62 580.39 94.47 580.29 94.39 C 576.51 91.40 572.37 88.79 567.86 87.05 L 567.74 86.13 L 566.78 85.64 L 566.00 86.09 L 565.25 85.84 C 563.25 83.94 560.39 84.10 557.84 84.06 L 557.09 83.87 C 556.77 83.67 556.12 83.26 555.80 83.06 C 545.07 82.86 534.31 82.92 523.57 83.05 Z" />
<path fill="#ff0000" opacity="1.00" d=" M 994.61 45.71 C 1001.14 43.84 1008.08 43.69 1014.79 44.52 C 1020.06 45.24 1026.04 47.36 1028.33 52.61 C 1030.51 58.84 1029.77 65.52 1029.88 72.00 C 1029.97 78.98 1029.67 85.97 1030.08 92.95 C 1039.30 92.62 1048.58 91.54 1057.80 92.62 C 1061.65 93.60 1066.08 95.28 1067.72 99.25 C 1070.84 106.08 1069.82 113.77 1069.85 121.04 C 1069.32 126.37 1067.74 133.13 1061.92 134.92 C 1051.60 138.98 1040.57 135.30 1029.93 135.91 C 1029.85 148.96 1029.87 162.01 1029.90 175.06 C 1030.30 178.77 1030.93 183.51 1034.62 185.40 C 1041.82 188.70 1050.61 185.01 1057.37 189.67 C 1062.31 192.92 1062.88 199.55 1062.90 204.95 C 1062.92 211.77 1063.20 219.77 1058.03 225.00 C 1051.84 230.07 1043.39 228.68 1036.00 228.85 C 1022.34 228.52 1007.95 224.78 997.79 215.21 C 988.94 205.87 986.09 192.52 985.46 180.06 C 985.14 165.32 985.56 150.57 985.24 135.82 C 979.72 135.76 973.90 137.62 968.62 135.31 C 963.40 132.60 961.54 126.53 961.20 121.05 C 960.92 114.00 960.99 106.79 963.07 99.99 C 964.06 96.68 966.88 94.14 970.12 93.08 C 975.00 91.33 980.18 92.75 985.18 93.01 C 985.68 81.67 985.03 70.30 985.52 58.95 C 985.79 53.42 988.84 47.18 994.61 45.71 Z" />
<path fill="#ff0000" opacity="1.00" d=" M 831.66 94.70 C 836.47 90.64 843.13 91.20 849.00 91.18 C 854.67 91.26 861.14 91.30 865.54 95.46 C 868.67 99.16 869.90 104.17 869.87 108.94 C 869.91 146.96 869.86 184.98 869.89 223.01 C 869.83 238.30 864.57 253.78 854.16 265.14 C 841.39 279.13 823.04 288.15 804.04 288.84 C 788.89 289.22 773.85 284.79 760.84 277.13 C 755.19 273.80 748.98 270.02 746.43 263.65 C 745.25 255.82 749.70 248.39 755.15 243.12 C 758.73 239.63 762.31 234.42 767.99 235.06 C 771.45 234.86 774.16 237.34 776.85 239.14 C 785.51 245.25 796.34 248.60 806.96 247.24 C 812.90 246.23 818.19 242.41 821.25 237.24 C 826.08 229.98 826.60 220.94 826.09 212.50 C 824.92 212.76 823.92 213.29 823.07 214.08 C 815.86 221.55 805.16 224.66 795.00 224.68 C 779.62 225.20 765.04 217.28 754.70 206.30 C 744.07 196.25 736.92 182.60 734.98 168.08 C 732.02 148.74 737.92 128.02 751.43 113.72 C 751.50 113.63 751.66 113.44 751.74 113.35 C 761.61 101.76 775.60 92.91 791.05 91.77 C 800.90 90.46 810.72 93.87 818.96 99.10 C 821.58 100.86 823.16 103.83 825.95 105.37 C 826.98 101.45 828.25 97.24 831.66 94.70 M 785.68 141.35 C 785.60 141.43 785.44 141.60 785.35 141.68 C 778.80 148.14 776.07 158.49 779.98 167.04 L 779.54 167.85 L 780.06 168.80 L 780.98 168.87 C 784.60 174.64 790.29 179.52 797.18 180.64 C 803.41 181.38 810.40 180.78 815.28 176.39 C 818.62 173.24 821.87 169.48 822.99 164.94 L 823.89 164.82 L 824.37 163.85 L 823.91 163.06 C 825.47 153.77 821.33 144.04 813.68 138.62 C 813.58 138.56 813.37 138.43 813.27 138.36 C 804.76 133.22 792.81 134.29 785.68 141.35 Z" />
<path fill="#ff0000" opacity="1.00" d=" M 686.22 91.96 C 692.62 91.40 699.42 91.85 705.29 94.69 C 709.17 96.55 711.71 100.66 711.85 104.94 C 712.74 121.95 712.14 138.98 712.32 156.00 C 712.17 174.67 712.62 193.35 712.05 212.01 C 712.16 217.39 710.52 223.72 705.32 226.32 C 698.70 229.56 691.10 228.90 683.96 228.74 C 678.99 228.19 673.24 227.05 670.32 222.54 C 667.90 218.13 667.53 212.98 667.30 208.06 C 667.29 180.37 667.30 152.69 667.30 125.00 C 667.55 116.50 666.31 107.57 669.57 99.49 C 672.21 93.05 680.25 92.58 686.22 91.96 Z" />
<path fill="#ff0000" opacity="1.00" d=" M 899.30 97.36 C 903.96 92.19 911.55 92.30 917.97 91.71 C 924.33 91.83 931.35 92.33 936.56 96.42 C 940.51 100.10 940.70 105.95 940.78 110.98 C 940.84 143.99 940.84 177.01 940.79 210.02 C 940.91 214.64 940.14 219.38 937.49 223.27 C 937.43 223.37 937.29 223.57 937.23 223.67 C 935.99 225.30 933.99 226.88 931.84 226.73 C 931.36 226.94 930.40 227.35 929.92 227.56 C 926.17 229.21 921.98 228.77 918.00 228.88 C 911.98 228.97 905.39 228.37 900.47 224.56 C 896.91 220.70 896.43 215.06 896.15 210.06 C 896.07 178.04 896.15 146.02 896.10 114.01 C 896.05 108.36 896.31 102.33 899.30 97.36 Z" />
<path fill="#ff0000" opacity="1.00" d=" M 1111.72 106.45 C 1121.52 97.41 1134.65 91.99 1148.00 91.70 C 1156.51 91.68 1164.78 94.59 1171.97 99.02 C 1174.70 100.69 1176.27 103.74 1179.04 105.35 C 1181.14 103.51 1180.92 100.00 1182.89 97.88 C 1187.63 91.99 1195.95 91.35 1202.97 91.50 C 1208.81 91.86 1215.35 92.01 1220.16 95.82 C 1224.08 100.15 1224.44 106.40 1224.77 111.96 C 1224.78 143.98 1224.78 176.00 1224.77 208.02 C 1224.52 212.51 1224.29 217.20 1222.32 221.32 C 1220.89 224.43 1217.71 226.27 1214.57 227.23 C 1206.26 229.46 1197.42 228.77 1189.19 226.65 C 1183.84 225.18 1181.16 219.97 1179.84 215.01 C 1176.08 217.49 1173.61 221.57 1169.40 223.43 C 1158.97 228.76 1146.24 230.18 1135.07 226.60 C 1134.58 226.40 1133.61 225.99 1133.12 225.78 C 1131.44 225.94 1129.86 225.22 1128.37 224.60 C 1116.96 219.53 1107.33 211.04 1099.80 201.18 C 1088.27 186.03 1083.53 165.69 1087.46 147.09 C 1087.65 146.60 1088.03 145.62 1088.22 145.13 C 1087.93 143.64 1088.41 142.17 1088.81 140.74 C 1092.59 127.44 1100.80 115.60 1111.35 106.76 C 1111.44 106.68 1111.63 106.53 1111.72 106.45 M 1136.60 145.36 C 1136.53 145.45 1136.38 145.64 1136.31 145.73 C 1132.45 150.61 1130.57 156.86 1131.16 163.06 C 1129.91 164.49 1130.16 165.43 1131.92 165.88 C 1132.57 169.02 1134.39 171.77 1136.32 174.29 C 1136.39 174.38 1136.55 174.57 1136.62 174.66 C 1139.67 178.25 1143.64 181.15 1148.21 182.44 C 1148.34 182.47 1148.60 182.54 1148.73 182.57 C 1149.61 182.66 1151.35 182.85 1152.23 182.94 C 1152.73 184.87 1157.22 184.86 1157.77 182.97 C 1164.11 182.84 1169.70 178.58 1173.37 173.66 C 1173.44 173.57 1173.58 173.37 1173.65 173.27 C 1176.98 168.57 1178.46 162.66 1177.90 156.94 L 1178.43 156.19 L 1178.04 155.17 L 1177.16 154.96 C 1176.74 151.96 1175.21 149.25 1173.64 146.72 C 1173.57 146.62 1173.44 146.42 1173.37 146.33 C 1165.54 133.67 1145.16 133.32 1136.60 145.36 Z" />
</g>
<g id="#1b87b63d">
<path fill="#1b87b6" opacity="0.24" d=" M 259.33 50.67 C 259.41 50.58 259.56 50.40 259.63 50.30 C 259.56 50.40 259.41 50.58 259.33 50.67 Z" />
<path fill="#1b87b6" opacity="0.24" d=" M 400.30 63.61 C 400.38 63.52 400.53 63.34 400.60 63.24 C 400.53 63.34 400.38 63.52 400.30 63.61 Z" />
<path fill="#1b87b6" opacity="0.24" d=" M 386.33 80.63 C 386.41 80.54 386.56 80.36 386.63 80.27 C 386.56 80.36 386.41 80.54 386.33 80.63 Z" />
<path fill="#1b87b6" opacity="0.24" d=" M 580.29 94.39 C 580.39 94.47 580.58 94.62 580.67 94.70 C 580.58 94.62 580.39 94.47 580.29 94.39 Z" />
<path fill="#1b87b6" opacity="0.24" d=" M 588.31 102.31 C 588.38 102.41 588.54 102.59 588.62 102.68 C 588.54 102.59 588.38 102.41 588.31 102.31 Z" />
<path fill="#1b87b6" opacity="0.24" d=" M 351.69 122.68 C 352.03 122.28 352.71 121.48 353.05 121.08 L 353.32 121.96 L 352.61 122.78 L 351.69 122.68 Z" />
<path fill="#1b87b6" opacity="0.24" d=" M 591.34 160.66 C 591.40 160.56 591.54 160.36 591.61 160.26 C 591.54 160.36 591.40 160.56 591.34 160.66 Z" />
<path fill="#1b87b6" opacity="0.24" d=" M 588.31 164.71 C 588.39 164.61 588.55 164.42 588.62 164.32 C 588.55 164.42 588.39 164.61 588.31 164.71 Z" />
<path fill="#1b87b6" opacity="0.24" d=" M 1148.21 182.44 C 1148.34 182.47 1148.60 182.54 1148.73 182.57 C 1148.60 182.54 1148.34 182.47 1148.21 182.44 Z" />
<path fill="#1b87b6" opacity="0.24" d=" M 328.36 329.31 C 328.43 329.41 328.59 329.59 328.66 329.68 C 328.59 329.59 328.43 329.41 328.36 329.31 Z" />
<path fill="#1b87b6" opacity="0.24" d=" M 269.35 442.30 C 269.43 442.40 269.58 442.58 269.66 442.67 C 269.58 442.58 269.43 442.40 269.35 442.30 Z" />
</g>
<g id="#00005aff">
<path fill="#00005a" opacity="1.00" d=" M 246.48 65.83 C 249.96 67.77 253.04 70.34 256.09 72.90 C 284.47 96.23 306.87 126.85 320.20 161.10 C 320.17 161.45 320.11 162.15 320.08 162.51 C 300.82 185.79 281.77 209.23 262.58 232.57 C 260.58 235.02 258.39 237.36 256.74 240.08 C 257.75 243.10 260.37 245.24 262.25 247.73 C 281.53 271.26 300.85 294.77 320.07 318.34 C 320.10 318.68 320.15 319.36 320.18 319.69 C 310.44 344.73 295.80 367.83 277.56 387.53 C 268.18 397.50 258.13 407.02 246.81 414.74 L 246.15 415.11 C 244.84 413.34 243.51 411.60 242.12 409.91 C 197.79 355.89 153.58 301.78 109.24 247.76 C 107.35 245.26 104.80 243.10 103.74 240.09 C 105.91 236.58 108.80 233.59 111.37 230.37 C 155.04 177.06 198.74 123.75 242.39 70.42 C 243.71 68.85 245.07 67.32 246.48 65.83 Z" />
<path fill="#00005a" opacity="1.00" d=" M 361.70 370.32 L 362.62 370.24 L 363.32 371.06 L 363.05 371.92 C 362.71 371.52 362.04 370.72 361.70 370.32 Z" />
<path fill="#00005a" opacity="1.00" d=" M 375.68 387.35 L 376.60 387.26 L 377.31 388.08 L 377.04 388.96 C 376.70 388.56 376.02 387.75 375.68 387.35 Z" />
</g>
<g id="#ffffffff">
<path fill="#ffffff" opacity="1.00" d=" M 599.13 130.34 C 601.18 130.95 601.19 136.04 599.16 136.66 C 599.28 134.55 599.27 132.44 599.13 130.34 Z" />
<path fill="#ffffff" opacity="1.00" d=" M 595.38 265.29 C 600.37 264.00 605.28 266.97 609.22 269.78 C 613.75 272.44 616.94 276.72 620.76 280.23 C 622.84 282.05 623.92 284.66 624.94 287.16 C 625.44 293.43 621.72 299.24 617.70 303.75 C 613.91 309.21 608.22 313.01 604.57 318.60 C 594.29 328.96 583.99 339.32 573.58 349.55 C 568.69 352.95 564.83 357.54 560.58 361.66 C 559.37 362.52 559.53 364.39 560.63 365.27 C 576.88 381.38 593.02 397.62 609.21 413.80 C 611.33 415.72 612.57 418.38 614.67 420.34 C 619.24 424.74 623.21 429.98 624.94 436.17 C 625.87 441.58 621.57 445.71 618.68 449.71 C 613.63 453.69 609.13 458.56 602.98 460.93 C 598.13 463.71 592.18 461.07 588.74 457.26 C 585.20 453.47 581.27 450.05 577.85 446.16 C 575.54 442.22 571.46 439.76 569.19 435.79 C 566.40 432.59 563.09 429.86 560.77 426.26 C 556.83 422.79 554.15 418.24 550.31 414.69 C 547.86 412.42 546.33 409.37 543.83 407.16 C 540.80 404.47 538.86 400.84 535.83 398.15 C 531.96 394.65 529.69 389.39 524.99 386.88 L 524.18 386.88 C 523.90 387.20 523.35 387.83 523.08 388.15 C 522.87 406.78 523.08 425.43 522.98 444.07 C 523.18 447.81 520.93 451.05 519.21 454.20 C 516.07 457.43 511.55 459.10 507.06 459.09 C 500.53 460.49 493.68 459.73 487.39 457.61 C 481.18 455.22 477.75 448.48 477.99 442.05 C 478.04 389.05 477.94 336.04 478.04 283.04 C 478.79 279.53 479.97 275.95 481.87 272.87 C 489.12 267.86 498.31 267.41 506.80 268.19 C 510.13 269.09 513.64 269.60 516.70 271.32 C 521.20 274.37 523.46 279.58 522.99 284.97 C 523.03 302.63 522.96 320.29 523.02 337.95 C 522.78 339.27 524.44 340.66 525.68 339.85 C 531.01 335.37 534.55 329.32 539.75 324.72 C 542.13 320.85 545.82 318.13 548.60 314.61 C 550.75 310.86 554.68 308.62 557.00 305.00 C 558.90 301.96 562.09 300.01 564.06 297.02 C 565.79 294.17 568.66 292.29 570.59 289.61 C 572.54 286.29 575.93 284.17 577.93 280.89 C 583.01 274.99 588.15 268.57 595.38 265.29 Z" />
<path fill="#ffffff" opacity="1.00" d=" M 1452.65 277.69 C 1456.40 275.61 1460.73 274.82 1464.99 275.00 C 1471.54 275.03 1478.96 274.23 1484.41 278.69 C 1488.79 281.57 1490.35 287.01 1490.03 292.03 C 1491.49 302.66 1490.06 313.44 1490.94 324.12 C 1499.23 322.64 1507.64 322.98 1516.04 323.00 C 1521.75 323.43 1527.64 327.02 1529.09 332.85 C 1531.72 342.77 1531.92 354.26 1526.17 363.18 C 1523.37 364.98 1520.19 366.17 1516.98 366.95 C 1510.97 367.10 1504.96 366.93 1498.96 367.02 C 1496.18 367.29 1493.69 365.74 1490.93 365.89 C 1490.43 379.90 1490.67 393.96 1490.80 407.99 C 1490.47 412.05 1492.91 416.28 1497.12 417.04 C 1502.07 417.40 1507.02 417.99 1512.00 418.13 C 1518.53 419.12 1523.42 425.41 1523.01 431.98 C 1523.96 436.65 1522.96 441.29 1522.78 445.98 C 1522.14 451.41 1518.65 456.57 1513.30 458.25 C 1505.44 460.63 1497.03 459.98 1489.00 458.91 C 1480.42 457.75 1471.57 455.69 1464.43 450.54 C 1460.50 447.49 1457.00 443.98 1453.87 440.12 C 1447.64 430.34 1445.76 418.42 1446.00 407.00 C 1445.93 394.07 1446.13 381.12 1445.91 368.20 C 1444.29 365.80 1440.48 367.48 1437.99 367.01 C 1432.64 367.66 1426.72 365.99 1424.06 360.98 C 1421.81 356.68 1421.95 351.75 1421.22 347.10 C 1422.20 343.47 1421.92 339.73 1422.12 336.02 C 1423.00 332.40 1424.02 328.45 1426.79 325.78 C 1431.00 323.07 1436.35 322.23 1441.23 323.53 C 1442.83 323.69 1444.92 324.69 1445.89 322.79 C 1446.24 310.87 1445.73 298.93 1446.16 287.01 C 1446.94 283.25 1448.98 279.33 1452.65 277.69 Z" />
<path fill="#ffffff" opacity="1.00" d=" M 709.47 319.55 C 740.92 315.52 774.00 335.30 784.70 365.28 C 793.15 388.63 789.63 416.90 772.75 435.73 C 769.93 438.28 767.83 441.50 764.77 443.78 C 755.07 453.67 741.53 458.93 728.06 461.08 C 715.15 463.81 701.86 460.75 689.74 456.19 C 677.35 450.54 666.27 441.72 658.61 430.42 C 652.28 422.61 648.74 412.94 646.83 403.17 C 645.36 396.87 646.18 390.35 646.03 383.94 C 647.60 370.86 651.96 357.68 660.38 347.37 C 668.29 339.17 676.29 330.28 687.30 326.32 C 694.12 322.49 701.77 320.57 709.47 319.55 M 711.30 365.24 C 702.56 367.66 694.36 374.16 692.24 383.29 C 690.93 391.60 691.30 401.20 697.24 407.77 C 702.30 412.04 708.31 415.49 714.99 416.25 C 723.62 417.03 731.80 412.64 737.87 406.83 C 740.85 403.21 743.16 398.78 743.16 393.99 C 743.60 387.23 743.25 379.78 738.73 374.33 C 732.12 366.56 721.23 363.17 711.30 365.24 Z" />
<path fill="#ffffff" opacity="1.00" d=" M 1143.42 331.43 C 1160.13 321.11 1180.72 317.85 1200.00 321.07 C 1214.42 323.51 1228.37 331.01 1236.86 343.15 C 1239.57 346.05 1240.68 349.95 1242.76 353.27 C 1245.85 358.09 1246.48 363.95 1247.42 369.48 C 1248.43 374.85 1247.42 380.29 1246.50 385.59 C 1244.02 396.83 1233.54 405.57 1222.06 406.01 C 1201.36 405.98 1180.67 406.01 1159.97 405.99 C 1159.84 409.06 1159.69 412.53 1162.19 414.79 C 1169.86 422.42 1181.16 425.97 1191.86 424.88 C 1194.80 423.77 1197.93 423.99 1201.03 424.00 C 1208.78 423.37 1215.45 418.27 1223.21 417.74 C 1230.15 417.47 1234.87 423.77 1237.57 429.40 C 1239.12 434.13 1242.21 439.18 1240.24 444.23 C 1239.91 447.06 1238.05 449.31 1236.46 451.56 C 1233.86 454.90 1229.61 456.12 1225.98 457.98 C 1218.76 461.37 1210.71 461.69 1203.03 463.00 C 1199.06 463.12 1195.08 462.79 1191.13 463.11 C 1188.63 463.82 1185.94 464.55 1183.41 463.58 C 1180.37 462.50 1177.09 463.22 1173.96 462.97 C 1162.10 461.11 1150.09 457.84 1140.25 450.67 C 1126.67 441.27 1118.02 426.24 1113.58 410.58 C 1108.70 390.78 1111.47 368.85 1122.60 351.59 C 1128.02 343.51 1135.20 336.65 1143.42 331.43 M 1166.37 369.31 C 1162.80 372.97 1159.23 377.56 1159.82 383.00 C 1170.56 383.00 1181.30 383.00 1192.05 383.01 C 1194.31 383.05 1196.48 382.28 1198.68 381.77 C 1202.63 379.50 1204.09 374.07 1202.09 370.03 C 1199.98 363.35 1192.46 360.58 1186.01 360.88 C 1178.54 360.26 1171.70 364.48 1166.37 369.31 Z" />
<path fill="#ffffff" opacity="1.00" d=" M 1030.43 321.56 C 1035.22 320.60 1040.14 321.13 1044.99 320.99 C 1051.89 320.70 1058.62 322.72 1065.07 324.98 C 1072.69 327.15 1079.49 331.49 1085.70 336.31 C 1088.46 339.19 1092.41 341.71 1092.87 346.03 C 1093.49 352.23 1090.26 357.98 1086.85 362.90 C 1082.77 368.69 1077.97 374.83 1070.80 376.73 C 1066.16 376.56 1061.77 374.55 1057.92 372.08 C 1054.75 369.62 1051.47 366.71 1047.21 366.78 C 1042.97 364.99 1038.60 366.68 1034.35 367.30 C 1028.87 369.70 1023.21 372.87 1020.29 378.31 C 1016.78 384.23 1017.59 391.38 1017.98 397.94 C 1020.60 410.56 1035.33 417.56 1047.27 414.38 C 1052.79 413.29 1057.56 410.19 1062.29 407.32 C 1065.10 405.34 1068.64 405.99 1071.86 406.09 C 1077.22 409.20 1082.43 412.87 1085.82 418.19 C 1089.78 422.74 1093.86 428.43 1092.75 434.81 C 1091.11 439.56 1088.00 443.94 1083.79 446.75 C 1076.39 452.28 1068.26 457.06 1059.17 459.10 C 1045.95 462.20 1031.91 461.48 1019.15 456.80 C 1011.03 453.37 1003.20 449.20 996.25 443.76 C 988.83 438.77 983.95 431.15 979.45 423.63 C 967.90 402.41 968.17 374.80 981.31 354.34 C 992.22 337.23 1010.58 325.39 1030.43 321.56 Z" />
<path fill="#ffffff" opacity="1.00" d=" M 815.80 326.79 C 825.32 320.98 837.46 321.04 847.88 324.20 C 853.82 325.96 856.19 332.61 856.11 338.27 C 859.89 337.53 862.12 334.23 864.73 331.74 C 868.74 327.57 874.17 325.19 879.67 323.68 C 884.65 321.74 890.10 321.83 895.30 322.71 C 905.86 323.72 916.02 328.06 924.19 334.81 C 929.99 340.38 935.76 346.19 939.58 353.37 C 944.78 363.47 948.17 374.58 948.98 385.94 C 949.04 404.30 948.96 422.66 949.02 441.02 C 949.18 445.86 947.65 450.86 944.71 454.70 C 939.93 458.70 933.39 458.88 927.50 459.42 C 921.12 459.29 914.37 458.67 908.86 455.11 C 904.93 451.53 905.34 445.69 904.04 440.95 C 903.92 422.31 904.07 403.67 903.97 385.04 C 902.62 376.32 895.38 369.04 886.83 367.10 C 880.90 367.00 874.61 366.13 869.21 369.17 C 862.32 371.90 858.22 378.99 856.98 386.01 C 856.66 398.67 856.92 411.34 856.84 424.00 C 856.73 431.94 857.26 439.96 855.78 447.81 C 854.72 451.30 852.65 454.54 849.63 456.65 C 844.83 459.03 839.36 458.93 834.17 459.51 C 829.68 458.67 824.89 459.47 820.69 457.30 C 814.87 455.28 812.19 448.78 812.00 443.05 C 812.00 407.68 811.98 372.30 812.01 336.92 C 811.88 333.19 814.07 329.93 815.80 326.79 Z" />
<path fill="#ffffff" opacity="1.00" d=" M 1276.38 325.46 C 1283.45 321.31 1292.14 321.56 1299.95 323.07 C 1303.14 323.94 1306.87 324.11 1309.21 326.78 C 1311.97 328.87 1312.82 332.28 1313.97 335.37 C 1316.69 334.10 1318.62 331.78 1320.80 329.80 C 1334.08 320.94 1352.22 320.10 1366.27 327.76 C 1372.16 330.10 1376.67 334.61 1381.65 338.35 C 1386.67 342.72 1390.48 348.23 1394.52 353.47 C 1398.49 360.94 1402.53 368.60 1403.76 377.08 C 1405.96 388.66 1405.08 400.90 1400.88 411.93 C 1397.71 418.24 1395.28 425.15 1390.28 430.31 C 1386.66 435.26 1382.28 439.71 1377.30 443.30 C 1369.18 450.35 1358.92 455.32 1348.07 455.92 C 1338.38 456.36 1328.21 454.55 1320.29 448.64 C 1318.15 447.41 1316.61 445.11 1314.05 444.72 C 1313.81 464.17 1314.13 483.62 1313.88 503.07 C 1313.71 508.76 1311.16 515.17 1305.66 517.63 C 1296.89 520.66 1287.16 520.60 1278.39 517.62 C 1272.37 515.27 1270.26 507.97 1270.11 502.07 C 1270.05 448.71 1270.11 395.35 1270.08 341.99 C 1270.00 338.46 1270.35 334.90 1271.73 331.62 C 1272.68 329.23 1273.76 326.40 1276.38 325.46 M 1331.39 367.48 C 1324.92 369.25 1320.14 374.51 1317.26 380.34 C 1314.30 387.66 1315.29 396.51 1320.03 402.90 C 1327.16 413.90 1344.59 414.81 1353.47 405.46 C 1358.30 401.18 1360.99 394.75 1360.79 388.35 C 1360.04 381.07 1356.35 373.85 1349.94 370.01 C 1344.59 366.27 1337.54 366.18 1331.39 367.48 Z" />
</g>
</svg>
